<svg width="233" height="51" viewBox="0 0 233 51" fill="none" xmlns="http://www.w3.org/2000/svg">
<path d="M58.2772 30.1652H232.61V30.036H58.2772" fill="white"/>
<path d="M64.6314 35.2966C64.5668 33.9122 63.1132 33.377 61.7935 33.377C60.4737 33.377 59.3201 33.8061 58.6417 34.8905C58.2256 35.5477 57.9944 36.3049 57.9726 37.0824C57.9726 38.0884 58.2726 39.2836 59.1355 39.9711C59.9984 40.6587 60.8844 40.7879 61.9873 40.7879C62.8937 40.7704 63.7938 40.6323 64.6637 40.3772V36.8563H61.8165V37.7008H63.5885V39.7173C63.0836 39.8666 62.5599 39.9428 62.0334 39.9435C59.7954 39.9019 59.1909 38.9052 59.1032 37.0824C59.0617 35.7488 59.7538 34.2214 61.6643 34.2214C62.4949 34.2214 63.307 34.4475 63.5101 35.2966H64.6314ZM71.7286 40.6403V39.805H67.8293V37.447H71.4609V36.5748H67.8293V34.3552H71.6409V33.5246H66.7587V40.6403H71.7286ZM78.9365 33.5246V39.4082L75.1341 33.5246H73.6575V40.6403H74.6173V34.5952L78.5627 40.6403H79.901V33.5246H78.9365ZM87.0443 40.6403V39.805H83.145V37.447H86.7812V36.5748H83.1542V34.3552H86.9658V33.5246H82.0744V40.6403H87.0443ZM89.9284 34.3691H91.7142C92.9094 34.4198 93.1816 34.9136 93.1816 35.4766C93.1816 36.0395 92.9094 36.5287 91.7142 36.5795H89.9284V34.3691ZM91.465 37.4285C91.8843 37.3792 92.3064 37.495 92.6417 37.7515C92.997 38.1069 92.997 38.6745 93.1032 39.3297C93.1585 39.7543 93.2878 40.2157 93.3847 40.6403H94.5383C94.3022 39.9484 94.1473 39.2314 94.0768 38.5037C93.9569 37.7008 93.8277 37.2486 92.8863 37.0409C93.2963 36.9788 93.6703 36.7712 93.9398 36.4559C94.2092 36.1407 94.3562 35.739 94.3537 35.3243C94.3537 33.9399 93.0063 33.5431 91.7004 33.5431H88.9316V40.6587H90.0114V37.4285H91.465ZM96.864 40.6587L97.7039 38.8129H101.322L102.166 40.6587H103.343L100.191 33.5431H99.0329L95.7519 40.6587H96.864ZM99.5635 34.5167L100.976 37.9592H98.073L99.5635 34.5167ZM109.499 40.6587V39.805H105.872V33.5246H104.792V40.6403L109.499 40.6587ZM119.489 35.3751C119.369 34.1014 118.248 33.4323 116.743 33.3954C114.132 33.3262 113.292 35.3566 113.292 37.0871C113.292 39.0805 114.215 40.7787 116.522 40.7787C118.045 40.7787 119.36 39.9942 119.471 38.799H118.336C118.206 39.5604 117.45 39.9342 116.619 39.9342C114.925 39.9342 114.436 38.5499 114.436 37.0732C114.436 35.8181 114.792 34.2122 116.716 34.2122C117.514 34.2122 118.317 34.6736 118.368 35.3474L119.489 35.3751ZM120.786 37.1009C120.786 39.1821 121.916 40.7925 124.348 40.7925C126.78 40.7925 127.911 39.1682 127.911 37.1009C127.911 35.0336 126.78 33.4093 124.348 33.4093C121.916 33.4093 120.786 35.0336 120.786 37.1009ZM121.916 37.1009C121.916 35.5827 122.378 34.2399 124.348 34.2399C126.319 34.2399 126.78 35.5827 126.78 37.1009C126.78 38.6191 126.319 39.9619 124.348 39.9619C122.378 39.9619 121.916 38.5775 121.916 37.1009ZM135.137 33.5431V39.4266H135.114L131.312 33.5431H129.835V40.6587H130.795V34.6137L134.74 40.6587H136.078V33.5246L135.137 33.5431ZM140.213 40.6587H141.293V34.3691H143.905V33.5246H137.61V34.3691H140.222V40.6403L140.213 40.6587ZM146.383 34.3875H148.169C149.364 34.4383 149.636 34.9321 149.636 35.495C149.636 36.058 149.364 36.5471 148.169 36.5979H146.383V34.3875ZM147.919 37.447C148.339 37.3986 148.76 37.5144 149.096 37.77C149.451 38.1253 149.451 38.6929 149.558 39.3482C149.613 39.7727 149.742 40.2342 149.839 40.6587H150.993C150.749 39.9678 150.586 39.2508 150.508 38.5222C150.388 37.7192 150.259 37.267 149.318 37.0594C149.728 36.9973 150.102 36.7896 150.371 36.4744C150.641 36.1592 150.787 35.7574 150.785 35.3428C150.785 33.9584 149.438 33.5615 148.132 33.5615H145.363V40.6772H146.443V37.447H147.919ZM153.318 40.6772L154.158 38.8313H157.776L158.621 40.6772H159.797L156.641 33.5615H155.487L152.206 40.6772H153.318ZM156.018 34.5352L157.43 37.9777H154.527L156.018 34.5352ZM166.77 35.3935C166.654 34.1199 165.533 33.4508 164.029 33.4139C161.417 33.3447 160.572 35.3751 160.572 37.1055C160.572 39.099 161.495 40.7971 163.803 40.7971C165.325 40.7971 166.641 40.0127 166.747 38.8175H165.616C165.487 39.5789 164.73 39.9527 163.9 39.9527C162.201 39.9527 161.717 38.5683 161.717 37.0917C161.717 35.8365 162.072 34.2306 163.996 34.2306C164.795 34.2306 165.593 34.6921 165.648 35.3658L166.77 35.3935ZM170.392 40.6772H171.467V34.3691H174.084V33.5246H167.785V34.3691H170.401V40.6403L170.392 40.6772ZM174.961 37.1194C174.961 39.2005 176.091 40.811 178.523 40.811C180.955 40.811 182.086 39.1867 182.086 37.1194C182.086 35.052 180.95 33.4277 178.523 33.4277C176.096 33.4277 174.961 35.052 174.961 37.1194ZM176.091 37.1194C176.091 35.6012 176.553 34.2583 178.523 34.2583C180.493 34.2583 180.95 35.6012 180.95 37.1194C180.95 38.6375 180.489 39.9804 178.523 39.9804C176.557 39.9804 176.091 38.596 176.091 37.1194ZM184.988 34.406H186.769C187.969 34.4568 188.241 34.9505 188.241 35.5135C188.241 36.0765 187.969 36.5656 186.769 36.6164H184.988V34.406ZM186.52 37.4654C186.941 37.4163 187.364 37.5321 187.701 37.7885C188.057 38.1438 188.057 38.7114 188.163 39.3666C188.233 39.8079 188.325 40.2453 188.44 40.6772H189.598C189.355 39.9858 189.191 39.269 189.109 38.5406C188.989 37.7377 188.86 37.2855 187.923 37.0778C188.333 37.0157 188.707 36.8081 188.976 36.4929C189.246 36.1776 189.393 35.7759 189.39 35.3612C189.39 33.9768 188.043 33.58 186.737 33.58H183.968V40.6956H185.048V37.4654H186.52ZM191.028 38.6006C190.987 40.1973 192.173 40.8248 193.797 40.8248C195.422 40.8248 196.958 40.2572 196.958 38.6375C196.958 36.8425 195.006 36.8425 193.566 36.4179C192.888 36.2195 192.261 36.1734 192.261 35.3612C192.261 34.549 193.308 34.2583 194.074 34.2583C194.84 34.2583 195.588 34.5352 195.634 35.3335H196.764C196.764 33.9492 195.458 33.4139 194.129 33.4139C192.671 33.4139 191.13 33.9815 191.13 35.5319C191.13 37.0824 193.267 37.3778 194.549 37.65C195.2 37.77 195.828 38.0561 195.828 38.7483C195.828 39.745 194.748 39.9804 193.862 39.9804C192.814 39.9804 192.173 39.6066 192.154 38.596L191.028 38.6006ZM198.292 41.9093H199.025L200.235 39.4958H198.979L198.292 41.9093ZM209.367 40.6772V39.805H205.74V33.5246H204.66V40.6403L209.367 40.6772ZM212.251 40.6772V39.4958H211.005V40.6772H212.251ZM219.108 40.6772V39.805H215.481V33.5246H214.401V40.6403L219.108 40.6772ZM221.987 40.6772V39.4958H220.737V40.6772H221.987ZM229.735 35.3935C229.615 34.1199 228.494 33.4508 226.994 33.4139C224.378 33.3447 223.538 35.3751 223.538 37.1055C223.538 39.099 224.461 40.7971 226.768 40.7971C228.291 40.7971 229.606 40.0127 229.717 38.8175H228.582C228.452 39.5789 227.696 39.9527 226.865 39.9527C225.172 39.9527 224.682 38.5683 224.682 37.0917C224.682 35.8365 225.038 34.2306 226.962 34.2306C227.76 34.2306 228.563 34.6921 228.614 35.3658L229.735 35.3935ZM232.624 40.6772V39.4958H231.374V40.6772H232.624Z" fill="white"/>
<path d="M58.0879 23.894H62.6701V18.4304H65.7249C67.5708 18.4304 68.2583 18.7718 68.5444 19.4271C68.9782 20.4239 68.9136 22.4958 69.4166 23.894H74.2803C73.625 22.3989 73.5374 19.3671 72.776 18.052C72.2499 17.1568 71.0086 16.8799 69.675 16.7968V16.7599C72.033 16.3815 73.6666 15.1033 73.6666 13.2713C73.6666 10.761 71.507 9.50583 67.7138 9.50583H58.0879V23.894ZM62.6701 12.293H65.6834C67.8892 12.293 69.0889 12.5514 69.0889 13.9496C69.0889 15.0433 68.4106 15.6432 66.3202 15.6432H62.6747V12.293H62.6701ZM79.1487 27.7195H83.6017L91.4141 13.8758H87.2887L83.9293 20.7515L80.7822 13.8897H75.8908L81.5205 23.894L79.144 27.7195H79.1487ZM101.76 19.5286C101.76 20.5623 101.151 22.0805 98.419 22.0805C97.2423 22.0805 96.6101 21.6606 96.6101 21.0422C96.6101 20.207 97.1961 19.5286 100.016 19.5286H101.76ZM97.2423 16.8384C97.2423 16.1416 97.7453 15.5786 99.2958 15.5786C100.952 15.5786 101.76 15.98 101.76 17.5767H98.7051C94.6028 17.5767 92.1571 18.6519 92.1571 21.0237C92.1571 23.1141 94.0029 24.2539 97.1131 24.2539C98.9589 24.2539 100.846 23.7925 101.848 22.2604H101.894C101.894 22.8 101.924 23.3391 101.981 23.8755H106.038C105.973 23.1372 105.95 22.3804 105.95 21.6421V17.8351C105.95 14.448 103.509 13.5113 99.2312 13.5113C96.3471 13.5113 93.14 14.2265 92.9231 16.8384H97.2423ZM109.452 23.894H113.638V19.5009C113.638 17.2906 115.124 16.0723 116.868 16.0723C118.765 16.0723 119.531 17.1891 119.531 18.7857V23.9078H123.698V18.1904C123.698 15.5832 122.184 13.502 118.192 13.502C117.304 13.4935 116.425 13.6848 115.621 14.0619C114.817 14.4389 114.107 14.9919 113.545 15.6801H113.504C113.504 15.0848 113.458 14.4849 113.416 13.8897H109.36C109.425 14.568 109.448 15.3017 109.448 15.9385V23.894H109.452ZM142.474 18.6519H146.627V21.1253C145.556 21.3423 144.467 21.4612 143.374 21.4806C139.71 21.4806 137.786 19.7686 137.786 16.5984C137.786 14.0096 139.119 11.9146 142.788 11.9146C144.731 11.9146 146.258 12.4914 146.323 14.065H151.034C150.882 10.2395 146.715 9.12744 142.765 9.12744C136.96 9.12744 133.074 11.4947 133.074 16.9722C133.074 22.3158 137.417 24.2678 143.092 24.2678C145.68 24.2225 148.261 23.9959 150.817 23.5894V15.98H142.465V18.6519H142.474ZM158.417 18.8918C158.417 16.8384 159.945 15.6986 161.911 15.6986C163.876 15.6986 165.404 16.8384 165.404 18.8918C165.404 20.9453 163.876 22.0805 161.911 22.0805C159.945 22.0805 158.417 20.9453 158.417 18.8918ZM153.969 18.8918C153.969 21.2637 155.736 24.2724 161.911 24.2724C168.085 24.2724 169.843 21.2637 169.843 18.8918C169.843 16.5199 168.08 13.502 161.901 13.502C155.722 13.502 153.96 16.5107 153.96 18.8826L153.969 18.8918ZM176.437 18.8918C176.437 16.8384 177.969 15.6986 179.93 15.6986C181.892 15.6986 183.424 16.8384 183.424 18.8918C183.424 20.9453 181.896 22.0805 179.93 22.0805C177.965 22.0805 176.437 20.9453 176.437 18.8918ZM171.989 18.8918C171.989 21.2637 173.756 24.2724 179.93 24.2724C186.105 24.2724 187.877 21.2637 187.877 18.8918C187.877 16.5199 186.1 13.502 179.921 13.502C173.742 13.502 171.98 16.5107 171.98 18.8826L171.989 18.8918ZM189.399 16.3169H192.085V20.5669C192.085 22.9942 193.783 24.1293 196.99 24.1293C197.933 24.1231 198.874 24.0444 199.805 23.894V21.4621C199.256 21.5321 198.703 21.5721 198.149 21.5821C196.469 21.5821 196.27 20.8438 196.27 19.4502V16.3169H199.805V13.8897H196.27V10.461L192.085 11.8454V13.8804H189.399V16.3169ZM206.109 17.7566C206.303 16.7184 206.87 15.5786 208.813 15.5786C210.299 15.5786 211.48 16.1185 211.522 17.7566H206.109ZM215.97 19.824C215.97 15.9201 214.124 13.5113 208.771 13.5113C205.015 13.5113 201.725 15.1817 201.725 19.0487C201.725 22.9988 205.038 24.2724 208.836 24.2724C211.872 24.2724 214.835 24.014 215.73 20.8438H211.282C211.065 21.5221 210.737 22.2005 208.901 22.2005C207.133 22.2005 206.132 21.3837 206.04 19.824H215.97ZM222.537 17.7566C222.73 16.7184 223.298 15.5786 225.241 15.5786C226.727 15.5786 227.908 16.1185 227.949 17.7566H222.537ZM232.398 19.824C232.398 15.9201 230.552 13.5113 225.199 13.5113C221.443 13.5113 218.148 15.1817 218.148 19.0487C218.148 22.9988 221.466 24.2724 225.264 24.2724C228.3 24.2724 231.263 24.014 232.158 20.8438H227.709C227.493 21.5221 227.165 22.2005 225.328 22.2005C223.492 22.2005 222.56 21.3837 222.467 19.824H232.398Z" fill="white"/>
<path d="M28.4672 18.9565H23.1882V38.4622H28.4672V18.9565Z" fill="white"/>
<path d="M29.2977 21.7807V38.4623H37.244V21.7392L33.3124 19.9487L29.2977 21.7807Z" fill="white"/>
<path d="M14.7527 16.7601V38.4623H22.4359V16.3679L18.6843 8.7677L14.7527 16.7601Z" fill="white"/>
<path d="M25.4955 1.85059C20.8169 1.85059 16.2435 3.238 12.3535 5.83735C8.46345 8.43671 5.43164 12.1313 3.64144 16.4538C1.85125 20.7763 1.38309 25.5326 2.29617 30.1212C3.20924 34.7097 5.46254 38.9245 8.7711 42.2324C12.0797 45.5403 16.2949 47.7928 20.8836 48.705C25.4724 49.6172 30.2286 49.1481 34.5508 47.357C38.8729 45.566 42.5669 42.5335 45.1655 38.643C47.7641 34.7524 49.1506 30.1787 49.1497 25.5001C49.1423 19.2293 46.6477 13.2175 42.2131 8.78385C37.7786 4.35015 31.7663 1.85669 25.4955 1.85059ZM40.3543 41.3096L37.3457 39.2515H29.4548L32.6111 46.0072C31.8354 46.2764 31.0451 46.5013 30.2439 46.6809L28.5549 39.2515H23.1974L21.3747 46.8147C20.6087 46.672 19.8509 46.4887 19.1043 46.2656L22.4407 39.2653H14.6651L10.9227 41.5726C7.69122 38.6416 5.41877 34.8041 4.40224 30.5614C3.38571 26.3187 3.67234 21.868 5.22471 17.7908C6.77708 13.7135 9.523 10.1992 13.1038 7.7069C16.6846 5.21458 20.9339 3.86013 25.2965 3.82046C29.659 3.78079 33.9322 5.05774 37.5578 7.48452C41.1833 9.9113 43.9927 13.3751 45.6189 17.4234C47.2452 21.4718 47.6127 25.9165 46.6735 30.177C45.7343 34.4374 43.532 38.3156 40.3543 41.305V41.3096Z" fill="white"/>
<path d="M25.5 0C20.4566 0 15.5264 1.49555 11.333 4.29752C7.13952 7.0995 3.87112 11.0821 1.94108 15.7416C0.0110488 20.4011 -0.493936 25.5283 0.489987 30.4748C1.47391 35.4213 3.90255 39.965 7.46879 43.5312C11.035 47.0975 15.5787 49.5261 20.5252 50.51C25.4717 51.4939 30.5989 50.989 35.2584 49.0589C39.9179 47.1289 43.9005 43.8605 46.7025 39.667C49.5044 35.4736 51 30.5434 51 25.5C51 22.1513 50.3404 18.8354 49.0589 15.7416C47.7774 12.6478 45.8991 9.83667 43.5312 7.46877C41.1633 5.10088 38.3522 3.22257 35.2584 1.94107C32.1646 0.659577 28.8487 0 25.5 0ZM25.5 50.3447C20.5854 50.3484 15.7801 48.8944 11.692 46.1666C7.60387 43.4389 4.41658 39.5599 2.53331 35.0205C0.650046 30.481 0.155402 25.485 1.11196 20.6644C2.06851 15.8437 4.43328 11.4151 7.90715 7.93865C11.381 4.46221 15.8079 2.09415 20.6278 1.13401C25.4477 0.173873 30.4441 0.664802 34.9849 2.5447C39.5258 4.42459 43.4071 7.60899 46.1379 11.6951C48.8687 15.7812 50.3263 20.5854 50.3263 25.5C50.319 32.0846 47.7009 38.3976 43.0462 43.0549C38.3915 47.7122 32.08 50.3337 25.4954 50.3447H25.5Z" fill="white"/>
</svg>
