<svg width="322" height="156" viewBox="0 0 322 156" fill="none" xmlns="http://www.w3.org/2000/svg">
<g clip-path="url(#clip0_60_121)">
<path d="M0.274719 134.476H321.725V134.239H0.274719" fill="white"/>
<path d="M12.2794 143.88C12.1644 141.325 9.47472 140.334 7.04695 140.334C4.61917 140.334 2.48528 141.133 1.23306 143.133C0.467564 144.344 0.0416866 145.738 0 147.17C0 149.023 0.555833 151.221 2.14667 152.499C3.7375 153.777 5.37306 154.032 7.40472 154.032C9.07773 153.998 10.7386 153.74 12.3433 153.266V146.749H7.08528V148.314H10.35V152.026C9.42043 152.299 8.45671 152.439 7.48778 152.441C3.36056 152.371 2.24889 150.525 2.08917 147.17C2.00611 144.717 3.28389 141.893 6.81056 141.893C8.34389 141.893 9.8325 142.315 10.1967 143.88H12.2794ZM25.3639 153.732V152.173H18.1764V147.822H24.8656V146.263H18.1764V142.168H25.2042V140.615H16.1894V153.738L25.3639 153.732ZM38.6592 140.615V151.477H38.6144L31.5867 140.615H28.8842V153.738H30.6667V142.59L37.9308 153.732H40.4033V140.615H38.6592ZM53.6028 153.732V152.173H46.4153V147.822H53.1044V146.263H46.4153V142.168H53.4431V140.615H44.4283V153.738L53.6028 153.732ZM58.9247 142.168H62.215C64.4256 142.257 64.9239 143.171 64.9239 144.206C64.9239 145.241 64.4256 146.123 62.215 146.244H58.9247V142.168ZM61.755 147.803C62.5536 147.86 63.3522 147.803 63.9272 148.404C64.5022 149.004 64.5661 150.129 64.745 151.311C64.8408 152.096 65.0836 152.953 65.2625 153.732H67.39C66.9434 152.454 66.6412 151.129 66.4892 149.784C66.2719 148.314 66.0356 147.477 64.3042 147.094C65.0647 146.977 65.7575 146.589 66.2552 146.002C66.7529 145.416 67.022 144.669 67.0131 143.899C67.0131 141.305 64.5214 140.615 62.1128 140.615H57.0017V153.738H58.995V147.809L61.755 147.803ZM71.7089 153.732L73.2614 150.314H79.9314L81.4839 153.732H83.6561L77.8422 140.615H75.7083L69.6389 153.732H71.7089ZM76.6667 142.404L79.2733 148.755H73.9194L76.6667 142.404ZM94.9836 153.732V152.173H88.3136V140.615H86.3267V153.738L94.9836 153.732ZM113.403 143.989C113.179 141.644 111.116 140.405 108.343 140.334C103.526 140.206 101.954 143.95 101.954 147.17C101.954 150.844 103.647 154.007 107.889 154.007C110.694 154.007 113.122 152.55 113.32 150.352H111.237C110.994 151.751 109.601 152.441 108.043 152.441C104.918 152.441 104.018 149.886 104.018 147.17C104.018 144.858 104.656 141.893 108.221 141.893C109.697 141.893 111.167 142.73 111.269 143.989H113.403ZM115.792 147.183C115.792 151.017 117.881 154.019 122.36 154.019C126.839 154.019 128.928 151.017 128.928 147.183C128.928 143.35 126.845 140.347 122.36 140.347C117.875 140.347 115.792 143.343 115.792 147.183ZM117.881 147.183C117.881 144.378 118.718 141.906 122.354 141.906C125.989 141.906 126.826 144.378 126.826 147.183C126.826 149.988 125.989 152.454 122.354 152.454C118.718 152.454 117.881 149.899 117.881 147.183ZM142.268 140.615V151.477H142.229L135.202 140.615H132.474V153.738H134.243V142.59H134.288L141.552 153.732H144.018V140.615H142.268ZM151.634 153.738H153.621V142.174H158.444V140.615H146.817V142.174H151.634V153.738ZM163.006 142.174H166.29C168.501 142.264 168.999 143.177 168.999 144.212C168.999 145.247 168.501 146.129 166.29 146.25H163.006V142.174ZM165.836 147.809C166.635 147.867 167.427 147.809 168.009 148.41C168.59 149.01 168.647 150.135 168.82 151.317C168.922 152.103 169.159 152.959 169.337 153.738H171.465C171.02 152.46 170.72 151.135 170.571 149.79C170.353 148.32 170.117 147.484 168.386 147.1C169.145 146.982 169.836 146.594 170.333 146.007C170.829 145.42 171.097 144.674 171.088 143.906C171.088 141.312 168.603 140.622 166.194 140.622H161.083V153.745H163.07V147.816L165.836 147.809ZM175.79 153.738L177.343 150.32H184L185.552 153.738H187.718L181.924 140.615H179.79L173.739 153.738H175.79ZM180.767 142.411L183.374 148.761H178.02L180.767 142.411ZM200.573 143.995C200.356 141.65 198.286 140.411 195.519 140.341C190.702 140.213 189.13 143.957 189.13 147.177C189.13 150.851 190.823 154.013 195.059 154.013C197.87 154.013 200.298 152.556 200.496 150.359H198.407C198.171 151.758 196.778 152.448 195.212 152.448C192.088 152.448 191.194 149.892 191.194 147.177C191.194 144.864 191.833 141.9 195.398 141.9C196.867 141.9 198.343 142.736 198.445 143.995H200.573ZM207.249 153.738H209.236V142.174H214.053V140.615H202.426V142.174H207.249V153.738ZM215.67 147.177C215.67 151.01 217.759 154.013 222.238 154.013C226.716 154.013 228.805 151.01 228.805 147.177C228.805 143.343 226.716 140.341 222.238 140.341C217.759 140.341 215.67 143.337 215.67 147.177ZM217.759 147.177C217.759 144.372 218.596 141.9 222.231 141.9C225.866 141.9 226.703 144.372 226.703 147.177C226.703 149.982 225.873 152.448 222.231 152.448C218.589 152.448 217.759 149.892 217.759 147.177ZM234.159 142.174H237.443C239.654 142.264 240.152 143.177 240.152 144.212C240.152 145.247 239.654 146.129 237.443 146.25H234.159V142.174ZM236.989 147.809C237.782 147.867 238.58 147.809 239.155 148.41C239.73 149.01 239.794 150.135 239.973 151.317C240.075 152.103 240.312 152.959 240.491 153.738H242.618C242.171 152.461 241.87 151.136 241.724 149.79C241.506 148.32 241.264 147.484 239.539 147.1C240.298 146.982 240.989 146.594 241.486 146.007C241.982 145.42 242.25 144.674 242.241 143.906C242.241 141.312 239.756 140.622 237.347 140.622H232.236V153.745H234.223V147.816L236.989 147.809ZM245.295 149.905C245.218 152.85 247.403 154.013 250.406 154.013C253.313 154.013 256.239 152.959 256.239 149.975C256.239 146.666 252.636 146.666 249.991 145.886C248.713 145.522 247.576 145.426 247.576 143.938C247.576 142.449 249.493 141.9 250.924 141.9C252.355 141.9 253.709 142.411 253.792 143.887H255.881C255.881 141.331 253.473 140.341 251.026 140.341C248.336 140.341 245.493 141.395 245.493 144.244C245.493 147.19 249.429 147.682 251.799 148.154C252.994 148.378 254.15 148.902 254.15 150.173C254.15 152.013 252.157 152.448 250.528 152.448C248.611 152.448 247.416 151.758 247.378 149.892L245.295 149.905ZM258.712 156.013H260.028L262.258 151.541H259.951L258.673 156.013H258.712ZM279.156 153.738V152.179H272.435V140.615H270.448V153.738H279.156ZM284.465 153.738V151.56H282.159V153.738H284.465ZM297.115 153.738V152.179H290.394V140.615H288.401V153.738H297.115ZM302.424 153.738V151.56H300.086V153.738H302.424ZM316.704 143.995C316.486 141.65 314.416 140.411 311.65 140.341C306.833 140.213 305.261 143.957 305.261 147.177C305.261 150.851 306.948 154.013 311.19 154.013C314.001 154.013 316.429 152.556 316.627 150.359H314.525C314.289 151.758 312.889 152.448 311.331 152.448C308.206 152.448 307.312 149.892 307.312 147.177C307.312 144.864 307.951 141.9 311.509 141.9C312.985 141.9 314.461 142.736 314.557 143.995H316.704ZM322 153.732V151.553H319.694V153.732H322Z" fill="white"/>
<path d="M0.306671 122.911H8.75278V112.842H14.3878C17.7675 112.842 19.0581 113.481 19.5819 114.682C20.3869 116.522 20.2656 120.343 21.1919 122.911H30.1364C28.9289 120.158 28.7692 114.606 27.3572 112.146C26.3925 110.498 24.0989 109.98 21.6519 109.833V109.763C25.99 109.06 29.0119 106.709 29.0119 103.329C29.0119 98.6971 25.0253 96.3843 18.0294 96.3843H0.306671V122.911ZM8.75278 101.527H14.3111C18.3744 101.527 20.5914 102 20.5914 104.581C20.5914 106.6 19.3136 107.706 15.4803 107.706H8.75278V101.527ZM39.1383 129.971H47.3481L61.7486 104.473H54.1458L47.9486 117.149L42.1667 104.473H33.1456L43.5211 122.918L39.1383 129.946V129.971ZM80.8194 114.868C80.8194 116.784 79.6886 119.576 74.6542 119.576C72.4819 119.576 71.3128 118.803 71.3128 117.66C71.3128 116.113 72.4053 114.868 77.5931 114.868H80.8194ZM72.5139 109.91C72.5522 108.632 73.4403 107.591 76.2961 107.591C79.3564 107.591 80.8514 108.325 80.8514 111.271H75.21C67.6456 111.271 63.1414 113.251 63.1414 117.66C63.1414 121.493 66.5211 123.646 72.2711 123.646C75.6956 123.646 79.1583 122.764 81.0111 119.972H81.0878C81.0909 120.965 81.1464 121.957 81.2539 122.943H88.7353C88.6139 121.589 88.5692 120.196 88.5692 118.835V111.743C88.5692 105.495 84.065 103.77 76.1811 103.77C70.8656 103.77 64.9558 105.092 64.5533 109.91H72.5139ZM95.0283 122.911H102.746V114.791C102.746 110.715 105.487 108.472 108.669 108.472C112.17 108.472 113.575 110.53 113.575 113.468V122.911H121.299V112.401C121.299 107.591 118.527 103.77 111.16 103.77C109.522 103.752 107.901 104.102 106.417 104.796C104.933 105.489 103.623 106.508 102.586 107.776H102.51C102.51 106.671 102.427 105.572 102.344 104.473H94.8303C94.9517 105.719 94.9964 107.079 94.9964 108.249V122.911H95.0283ZM155.889 113.251H163.556V117.813C161.581 118.204 159.575 118.418 157.563 118.452C150.797 118.452 147.257 115.257 147.257 109.45C147.257 104.671 149.711 100.805 156.47 100.805C160.054 100.805 162.859 101.872 162.993 104.779H171.682C171.401 97.7515 163.715 95.6687 156.432 95.6687C145.724 95.6687 138.543 100.039 138.543 110.146C138.543 119.998 146.548 123.563 157.013 123.563C161.784 123.471 166.543 123.044 171.254 122.285V108.229H155.889V113.149V113.251ZM185.278 113.692C185.278 109.903 188.095 107.808 191.718 107.808C195.34 107.808 198.158 109.903 198.158 113.692C198.158 117.481 195.34 119.576 191.718 119.576C188.095 119.576 185.278 117.481 185.278 113.692ZM177.074 113.692C177.074 118.069 180.333 123.614 191.718 123.614C203.103 123.614 206.361 118.069 206.361 113.692C206.361 109.316 203.109 103.77 191.718 103.77C180.326 103.77 177.074 109.316 177.074 113.692ZM218.506 113.692C218.506 109.903 221.324 107.808 224.946 107.808C228.569 107.808 231.386 109.903 231.386 113.692C231.386 117.481 228.569 119.576 224.946 119.576C221.324 119.576 218.5 117.481 218.5 113.692H218.506ZM210.303 113.692C210.303 118.069 213.555 123.614 224.946 123.614C236.338 123.614 239.583 118.069 239.583 113.692C239.583 109.316 236.325 103.77 224.94 103.77C213.555 103.77 210.297 109.316 210.297 113.692H210.303ZM242.401 108.951H247.352V116.778C247.352 121.25 250.489 123.359 256.399 123.359C258.139 123.345 259.875 123.197 261.593 122.918V118.445C260.578 118.576 259.556 118.651 258.533 118.669C255.434 118.669 255.07 117.308 255.07 114.733V108.983H261.593V104.511H255.076V98.186L247.359 100.742V104.492H242.407V108.964L242.401 108.951ZM273.208 111.603C273.572 109.686 274.62 107.591 278.198 107.591C280.939 107.591 283.111 108.581 283.194 111.603H273.208ZM291.397 115.436C291.359 108.236 287.979 103.789 278.121 103.789C271.196 103.789 265.126 106.875 265.126 114.012C265.126 121.289 271.24 123.64 278.242 123.64C283.839 123.64 289.346 123.161 290.956 117.321H282.759C282.357 118.599 281.75 119.819 278.37 119.819C275.106 119.819 273.259 118.311 273.093 115.443L291.397 115.436ZM303.498 111.603C303.862 109.686 304.91 107.591 308.487 107.591C311.228 107.591 313.401 108.581 313.484 111.603H303.498ZM321.687 115.436C321.649 108.236 318.269 103.789 308.411 103.789C301.485 103.789 295.416 106.875 295.416 114.012C295.416 121.289 301.53 123.64 308.532 123.64C314.129 123.64 319.636 123.161 321.246 117.321H313.056C312.653 118.599 312.046 119.819 308.666 119.819C305.402 119.819 303.555 118.311 303.389 115.443L321.687 115.436Z" fill="white"/>
<path d="M165.383 27.9646H157.595V56.7406H165.383V27.9646Z" fill="white"/>
<path d="M166.603 32.1303V56.7407H178.333V32.0664L172.532 29.4277L166.603 32.1303Z" fill="white"/>
<path d="M145.149 24.7254V56.7406H156.483V24.144L150.95 12.9313L145.149 24.7254Z" fill="white"/>
<path d="M161 2.7345C154.099 2.7345 147.354 4.78078 141.616 8.61457C135.879 12.4484 131.407 17.8975 128.766 24.2728C126.125 30.6482 125.434 37.6635 126.781 44.4315C128.127 51.1996 131.45 57.4164 136.329 62.2959C141.209 67.1754 147.425 70.4984 154.193 71.8447C160.961 73.1909 167.976 72.5 174.352 69.8592C180.727 67.2184 186.176 62.7465 190.01 57.0088C193.843 51.2711 195.89 44.5254 195.89 37.6248C195.88 28.3744 192.2 19.5058 185.66 12.9648C179.119 6.42383 170.25 2.74464 161 2.7345ZM182.914 60.9382L178.48 57.9034H166.839L171.491 67.8703C170.355 68.2642 169.199 68.5969 168.028 68.8669L165.536 57.9034H157.608L154.918 69.0586C153.787 68.8422 152.669 68.5628 151.57 68.2217L156.528 57.9034H145.028L139.508 61.3343C134.75 57.0097 131.407 51.3514 129.914 45.0978C128.421 38.8441 128.848 32.2857 131.138 26.2783C133.429 20.2709 137.478 15.0936 142.756 11.422C148.033 7.75043 154.296 5.75515 160.725 5.69653C167.154 5.63791 173.451 7.51868 178.795 11.0934C184.139 14.6681 188.281 19.7708 190.681 25.7354C193.081 31.7 193.627 38.2496 192.249 44.5294C190.87 50.8092 187.63 56.5276 182.952 60.9382H182.914Z" fill="white"/>
<path d="M161 0C153.56 0 146.287 2.20628 140.101 6.33984C133.914 10.4734 129.093 16.3486 126.246 23.2225C123.399 30.0963 122.654 37.6601 124.105 44.9574C125.557 52.2546 129.139 58.9576 134.4 64.2186C139.661 69.4796 146.364 73.0624 153.661 74.5139C160.958 75.9654 168.522 75.2205 175.396 72.3732C182.269 69.526 188.145 64.7043 192.278 58.518C196.412 52.3317 198.618 45.0586 198.618 37.6184C198.618 27.6414 194.654 18.073 187.6 11.0182C180.545 3.96335 170.977 0 161 0ZM161 74.2656C153.752 74.2656 146.666 72.1161 140.64 68.089C134.613 64.0619 129.916 58.338 127.142 51.6412C124.369 44.9444 123.643 37.5756 125.058 30.4665C126.472 23.3575 129.963 16.8276 135.089 11.7026C140.215 6.57764 146.745 3.08784 153.854 1.67451C160.964 0.261194 168.332 0.987844 175.028 3.76257C181.725 6.53729 187.448 11.2355 191.474 17.2629C195.5 23.2904 197.648 30.3764 197.647 37.6248C197.635 47.34 193.77 56.6538 186.9 63.523C180.029 70.3921 170.715 74.2555 161 74.2656Z" fill="white"/>
</g>
<defs>
<clipPath id="clip0_60_121">
<rect width="322" height="156" fill="white"/>
</clipPath>
</defs>
</svg>
